<?xml version="1.0" encoding="utf-8"?>
<!-- Generator: Adobe Illustrator 21.0.0, SVG Export Plug-In . SVG Version: 6.00 Build 0)  -->
<svg version="1.0" id="Layer_1" xmlns="http://www.w3.org/2000/svg" xmlns:xlink="http://www.w3.org/1999/xlink" x="0px" y="0px"
	 viewBox="0 0 349.5 137.9" enable-background="new 0 0 349.5 137.9" xml:space="preserve">
<g>
	<g>
		<path fill="#FFFFFF" d="M40.4,114.7c-0.3,0-0.7-0.1-1-0.2c-1-0.4-1.6-1.4-1.6-2.4V92c0-0.7,0.3-1.4,0.8-1.9l10.4-10.4l3.7,3.7
			L43,93.1v12.6L62.7,86L37.4,60.7c-0.5-0.5-0.8-1.2-0.8-1.8V32.1c0-1.1,0.6-2,1.6-2.4c1-0.4,2.1-0.2,2.9,0.6l28.3,28.3l21.4-21.4
			c0.7-0.7,1.9-1,2.9-0.6c1,0.4,1.6,1.4,1.6,2.4v21.2c0,0.7-0.3,1.4-0.8,1.8l-19,19l-3.7-3.7L90,59.2V45.4L71.3,64.1
			c-1,1-2.7,1-3.7,0L41.9,38.4v19.4l26.4,26.4c1,1,1,2.7,0,3.7l-26,26C41.7,114.4,41.1,114.7,40.4,114.7z"/>
	</g>
	<g>
		<path fill="#FFFFFF" d="M115,124.5H16.9c-1.8,0-3.3-1.5-3.3-3.3V23c0-1.8,1.5-3.3,3.3-3.3H115c1.8,0,3.3,1.5,3.3,3.3v98.1
			C118.4,123,116.9,124.5,115,124.5z M20.2,117.8h91.5V26.3H20.2V117.8z"/>
	</g>
</g>
<g>
	<g>
		<path fill="#FFFFFF" d="M142.9,21.9h7.5l7.5,18.2l8.3-18.2h7.5l-18.2,39.7H148l6-12.8L142.9,21.9z"/>
		<path fill="#FFFFFF" d="M202.1,21.9h7.3V51h-7.3v-3.1c-1.4,1.4-2.9,2.3-4.3,2.9c-1.4,0.6-3,0.9-4.7,0.9c-3.8,0-7-1.5-9.7-4.4
			c-2.7-2.9-4.1-6.5-4.1-10.9c0-4.5,1.3-8.2,4-11c2.7-2.9,5.9-4.3,9.7-4.3c1.7,0,3.4,0.3,4.9,1c1.5,0.7,2.9,1.6,4.2,3V21.9z
			 M194.4,27.9c-2.3,0-4.1,0.8-5.6,2.4c-1.5,1.6-2.2,3.6-2.2,6.1c0,2.5,0.8,4.6,2.3,6.2c1.5,1.6,3.4,2.4,5.6,2.4
			c2.3,0,4.2-0.8,5.7-2.4c1.5-1.6,2.3-3.7,2.3-6.3c0-2.5-0.8-4.6-2.3-6.1C198.6,28.7,196.7,27.9,194.4,27.9z"/>
		<path fill="#FFFFFF" d="M217.8,21.9h6.3v3.7c0.7-1.4,1.6-2.5,2.7-3.3c1.1-0.7,2.3-1.1,3.7-1.1c0.9,0,1.9,0.3,3,0.7l-2.3,6.3
			c-0.9-0.4-1.6-0.6-2.1-0.6c-1.1,0-2.1,0.7-2.8,2.1c-0.8,1.4-1.2,4.1-1.2,8.2l0,1.4V51h-7.2V21.9z"/>
		<path fill="#FFFFFF" d="M257.5,25.9l-4.5,4.5c-1.8-1.8-3.5-2.7-5-2.7c-0.8,0-1.5,0.2-1.9,0.5c-0.5,0.3-0.7,0.8-0.7,1.3
			c0,0.4,0.1,0.8,0.4,1.1c0.3,0.3,1,0.8,2.2,1.4l2.7,1.3c2.8,1.4,4.7,2.8,5.8,4.2c1,1.4,1.6,3.1,1.6,5.1c0,2.6-1,4.7-2.8,6.5
			c-1.9,1.7-4.4,2.6-7.6,2.6c-4.2,0-7.6-1.7-10.1-5l4.5-4.9c0.9,1,1.9,1.8,3,2.4c1.1,0.6,2.2,0.9,3.1,0.9c1,0,1.7-0.2,2.3-0.7
			c0.6-0.5,0.9-1,0.9-1.6c0-1.1-1.1-2.2-3.2-3.3l-2.5-1.2c-4.7-2.4-7.1-5.3-7.1-8.9c0-2.3,0.9-4.3,2.7-5.9c1.8-1.6,4-2.4,6.8-2.4
			c1.9,0,3.7,0.4,5.3,1.2C255,23.2,256.4,24.4,257.5,25.9z"/>
		<path fill="#FFFFFF" d="M266.6,10.7h7.2v14.2c1.4-1.2,2.9-2.1,4.3-2.8c1.4-0.6,2.9-0.9,4.4-0.9c2.9,0,5.3,1,7.3,3
			c1.7,1.7,2.5,4.3,2.5,7.6V51h-7.2V38.2c0-3.4-0.2-5.6-0.5-6.8c-0.3-1.2-0.9-2.1-1.6-2.7c-0.8-0.6-1.7-0.9-2.9-0.9
			c-1.5,0-2.8,0.5-3.8,1.5c-1.1,1-1.8,2.3-2.2,4c-0.2,0.9-0.3,2.9-0.3,6V51h-7.2V10.7z"/>
		<path fill="#FFFFFF" d="M323.6,21.9h7.3V51h-7.3v-3.1c-1.4,1.4-2.8,2.3-4.3,2.9c-1.4,0.6-3,0.9-4.7,0.9c-3.8,0-7-1.5-9.7-4.4
			c-2.7-2.9-4.1-6.5-4.1-10.9c0-4.5,1.3-8.2,4-11c2.7-2.9,5.9-4.3,9.7-4.3c1.7,0,3.4,0.3,4.9,1c1.5,0.7,2.9,1.6,4.2,3V21.9z
			 M315.9,27.9c-2.3,0-4.1,0.8-5.6,2.4c-1.5,1.6-2.2,3.6-2.2,6.1c0,2.5,0.8,4.6,2.3,6.2c1.5,1.6,3.4,2.4,5.6,2.4
			c2.3,0,4.2-0.8,5.7-2.4c1.5-1.6,2.3-3.7,2.3-6.3c0-2.5-0.8-4.6-2.3-6.1C320.1,28.7,318.2,27.9,315.9,27.9z"/>
	</g>
	<g>
		<path fill="#FFFFFF" d="M192.5,69.3l-2.3,2.3c-1.9-1.8-3.7-2.7-5.5-2.7c-1.1,0-2.1,0.4-2.9,1.1c-0.8,0.8-1.2,1.6-1.2,2.6
			c0,0.9,0.3,1.7,1,2.5c0.7,0.8,2.1,1.8,4.2,2.9c2.6,1.4,4.4,2.7,5.4,3.9c0.9,1.3,1.4,2.7,1.4,4.3c0,2.3-0.8,4.2-2.4,5.7
			c-1.6,1.6-3.6,2.3-5.9,2.3c-1.6,0-3.1-0.3-4.5-1c-1.4-0.7-2.6-1.6-3.6-2.8l2.2-2.5c1.8,2,3.7,3,5.7,3c1.4,0,2.6-0.5,3.6-1.4
			c1-0.9,1.5-2,1.5-3.2c0-1-0.3-1.9-1-2.7c-0.7-0.8-2.1-1.7-4.4-2.9c-2.5-1.3-4.2-2.5-5.1-3.8c-0.9-1.2-1.3-2.7-1.3-4.3
			c0-2.1,0.7-3.8,2.1-5.2c1.4-1.4,3.2-2.1,5.4-2.1C187.4,65.6,189.9,66.8,192.5,69.3z"/>
		<path fill="#FFFFFF" d="M204.4,56.1h3.5v10.2h5.6v3h-5.6v24.4h-3.5V69.3h-4.8v-3h4.8V56.1z"/>
		<path fill="#FFFFFF" d="M220.9,66.3h3.5v12.8c0,3.1,0.2,5.3,0.5,6.4c0.5,1.7,1.5,3,2.9,4c1.4,1,3.1,1.5,5.1,1.5c2,0,3.6-0.5,5-1.4
			c1.4-0.9,2.3-2.2,2.8-3.7c0.4-1.1,0.5-3.3,0.5-6.7V66.3h3.6v13.5c0,3.8-0.4,6.6-1.3,8.5c-0.9,1.9-2.2,3.4-4,4.5
			c-1.8,1.1-4,1.6-6.7,1.6c-2.7,0-4.9-0.5-6.7-1.6c-1.8-1.1-3.1-2.6-4-4.5c-0.9-1.9-1.3-4.9-1.3-8.8V66.3z"/>
		<path fill="#FFFFFF" d="M282.7,55.7v38h-3.5V89c-1.5,1.8-3.1,3.1-5,4.1c-1.8,0.9-3.8,1.4-6,1.4c-3.9,0-7.2-1.4-9.9-4.2
			c-2.7-2.8-4.1-6.2-4.1-10.3c0-3.9,1.4-7.3,4.2-10.1c2.8-2.8,6.1-4.2,10-4.2c2.3,0,4.3,0.5,6.1,1.4c1.8,1,3.4,2.4,4.8,4.3V55.7
			H282.7z M268.6,69c-2,0-3.8,0.5-5.4,1.4c-1.7,1-3,2.3-4,4.1c-1,1.7-1.5,3.6-1.5,5.5c0,1.9,0.5,3.8,1.5,5.5c1,1.8,2.3,3.1,4,4.1
			c1.7,1,3.5,1.5,5.4,1.5c1.9,0,3.8-0.5,5.5-1.5c1.7-1,3.1-2.3,4-4c0.9-1.7,1.4-3.5,1.4-5.6c0-3.2-1-5.8-3.1-8
			C274.2,70,271.6,69,268.6,69z"/>
		<path fill="#FFFFFF" d="M294.4,55c0.8,0,1.5,0.3,2.1,0.9c0.6,0.6,0.9,1.3,0.9,2.1c0,0.8-0.3,1.5-0.9,2c-0.6,0.6-1.3,0.9-2.1,0.9
			c-0.8,0-1.5-0.3-2-0.9c-0.6-0.6-0.9-1.2-0.9-2c0-0.8,0.3-1.5,0.9-2.1C293,55.3,293.7,55,294.4,55z M292.7,66.3h3.5v27.4h-3.5V66.3
			z"/>
		<path fill="#FFFFFF" d="M319.1,65.6c4.2,0,7.7,1.5,10.5,4.6c2.5,2.8,3.8,6.1,3.8,9.9c0,3.8-1.3,7.2-4,10
			c-2.7,2.9-6.1,4.3-10.3,4.3c-4.2,0-7.6-1.4-10.3-4.3c-2.7-2.9-4-6.2-4-10c0-3.8,1.3-7.1,3.8-9.9C311.4,67.1,314.9,65.6,319.1,65.6
			z M319.1,69c-2.9,0-5.5,1.1-7.6,3.3c-2.1,2.2-3.2,4.8-3.2,7.9c0,2,0.5,3.8,1.4,5.5c1,1.7,2.3,3,3.9,4c1.6,0.9,3.4,1.4,5.4,1.4
			c2,0,3.8-0.5,5.4-1.4c1.6-0.9,2.9-2.3,3.9-4c1-1.7,1.4-3.6,1.4-5.5c0-3.1-1.1-5.7-3.2-7.9C324.5,70.1,322,69,319.1,69z"/>
	</g>
	<g>
		<path fill="#FFFFFF" d="M155,108.7v13h-1.2v-1.6c-0.5,0.6-1.1,1.1-1.7,1.4c-0.6,0.3-1.3,0.5-2.1,0.5c-1.3,0-2.5-0.5-3.4-1.5
			c-0.9-1-1.4-2.1-1.4-3.5c0-1.4,0.5-2.5,1.4-3.5c1-1,2.1-1.4,3.4-1.4c0.8,0,1.5,0.2,2.1,0.5c0.6,0.3,1.2,0.8,1.6,1.5v-5.4H155z
			 M150.2,113.3c-0.7,0-1.3,0.2-1.9,0.5c-0.6,0.3-1,0.8-1.4,1.4c-0.3,0.6-0.5,1.2-0.5,1.9c0,0.7,0.2,1.3,0.5,1.9
			c0.3,0.6,0.8,1.1,1.4,1.4c0.6,0.3,1.2,0.5,1.8,0.5c0.7,0,1.3-0.2,1.9-0.5c0.6-0.3,1.1-0.8,1.4-1.4c0.3-0.6,0.5-1.2,0.5-1.9
			c0-1.1-0.4-2-1.1-2.7C152.1,113.6,151.3,113.3,150.2,113.3z"/>
		<path fill="#FFFFFF" d="M166.6,118.6l1,0.5c-0.3,0.7-0.7,1.2-1.2,1.6c-0.4,0.4-0.9,0.7-1.5,0.9c-0.5,0.2-1.2,0.3-1.9,0.3
			c-1.5,0-2.7-0.5-3.6-1.5c-0.9-1-1.3-2.1-1.3-3.4c0-1.2,0.4-2.3,1.1-3.2c0.9-1.2,2.2-1.8,3.7-1.8c1.6,0,2.9,0.6,3.8,1.8
			c0.7,0.9,1,1.9,1,3.2h-8.5c0,1.1,0.4,2,1,2.7c0.7,0.7,1.5,1,2.5,1c0.5,0,0.9-0.1,1.4-0.2c0.5-0.2,0.8-0.4,1.2-0.7
			C165.9,119.7,166.2,119.2,166.6,118.6z M166.6,116.1c-0.2-0.6-0.4-1.2-0.7-1.5c-0.3-0.4-0.7-0.7-1.2-0.9c-0.5-0.2-1-0.4-1.6-0.4
			c-0.9,0-1.7,0.3-2.4,0.9c-0.5,0.4-0.9,1.1-1.1,1.9H166.6z"/>
		<path fill="#FFFFFF" d="M175.8,113.4l-0.8,0.8c-0.6-0.6-1.3-0.9-1.9-0.9c-0.4,0-0.7,0.1-1,0.4c-0.3,0.3-0.4,0.6-0.4,0.9
			c0,0.3,0.1,0.6,0.3,0.9c0.2,0.3,0.7,0.6,1.5,1c0.9,0.5,1.5,0.9,1.8,1.3c0.3,0.4,0.5,0.9,0.5,1.5c0,0.8-0.3,1.4-0.8,2
			c-0.5,0.5-1.2,0.8-2,0.8c-0.5,0-1.1-0.1-1.6-0.4c-0.5-0.2-0.9-0.6-1.2-1l0.8-0.9c0.6,0.7,1.3,1,2,1c0.5,0,0.9-0.2,1.2-0.5
			c0.3-0.3,0.5-0.7,0.5-1.1c0-0.3-0.1-0.7-0.3-0.9c-0.2-0.3-0.7-0.6-1.5-1c-0.9-0.4-1.4-0.9-1.7-1.3c-0.3-0.4-0.5-0.9-0.5-1.5
			c0-0.7,0.2-1.3,0.7-1.8c0.5-0.5,1.1-0.7,1.9-0.7C174.1,112.1,174.9,112.5,175.8,113.4z"/>
		<path fill="#FFFFFF" d="M179.3,108.5c0.3,0,0.5,0.1,0.7,0.3c0.2,0.2,0.3,0.4,0.3,0.7c0,0.3-0.1,0.5-0.3,0.7
			c-0.2,0.2-0.4,0.3-0.7,0.3c-0.3,0-0.5-0.1-0.7-0.3c-0.2-0.2-0.3-0.4-0.3-0.7c0-0.3,0.1-0.5,0.3-0.7
			C178.8,108.6,179,108.5,179.3,108.5z M178.7,112.3h1.2v9.4h-1.2V112.3z"/>
		<path fill="#FFFFFF" d="M191.4,112.3h1.2v7.5c0,1.3-0.1,2.3-0.3,2.9c-0.3,0.9-0.9,1.5-1.7,2c-0.8,0.5-1.7,0.7-2.8,0.7
			c-0.8,0-1.5-0.1-2.2-0.3c-0.6-0.2-1.2-0.5-1.6-0.9c-0.4-0.4-0.8-1-1.1-1.7h1.3c0.4,0.6,0.8,1.1,1.4,1.4c0.6,0.3,1.3,0.4,2.1,0.4
			c0.8,0,1.5-0.2,2.1-0.5c0.6-0.3,1-0.7,1.2-1.2c0.2-0.5,0.4-1.2,0.4-2.3V120c-0.5,0.6-1,1-1.7,1.3c-0.7,0.3-1.4,0.5-2.1,0.5
			c-0.9,0-1.7-0.2-2.4-0.6c-0.8-0.4-1.4-1-1.8-1.7c-0.4-0.7-0.6-1.5-0.6-2.4c0-0.9,0.2-1.7,0.6-2.4c0.4-0.8,1-1.4,1.8-1.8
			c0.8-0.4,1.6-0.7,2.4-0.7c0.7,0,1.4,0.1,2,0.4c0.6,0.3,1.2,0.8,1.8,1.4V112.3z M187.8,113.3c-0.7,0-1.3,0.2-1.9,0.5
			c-0.6,0.3-1,0.8-1.4,1.4c-0.3,0.6-0.5,1.2-0.5,1.9c0,1,0.3,1.9,1,2.6c0.7,0.7,1.6,1,2.7,1c1.1,0,2-0.3,2.7-1c0.7-0.7,1-1.6,1-2.6
			c0-0.7-0.2-1.3-0.5-1.9c-0.3-0.6-0.8-1-1.3-1.3C189.1,113.4,188.5,113.3,187.8,113.3z"/>
		<path fill="#FFFFFF" d="M196.1,112.3h1.2v1.7c0.5-0.6,1-1.1,1.6-1.5c0.6-0.3,1.2-0.5,1.9-0.5c0.7,0,1.3,0.2,1.9,0.5
			c0.5,0.4,0.9,0.8,1.2,1.4c0.3,0.6,0.4,1.5,0.4,2.8v4.8h-1.2v-4.5c0-1.1,0-1.8-0.1-2.2c-0.1-0.6-0.4-1.1-0.8-1.4
			c-0.4-0.3-0.9-0.5-1.6-0.5c-0.7,0-1.4,0.2-2,0.7c-0.6,0.5-1,1.1-1.2,1.8c-0.1,0.5-0.2,1.3-0.2,2.6v3.5h-1.2V112.3z"/>
		<path fill="#FFFFFF" d="M209.1,119.9c0.3,0,0.5,0.1,0.8,0.3c0.2,0.2,0.3,0.5,0.3,0.8c0,0.3-0.1,0.5-0.3,0.8
			c-0.2,0.2-0.5,0.3-0.8,0.3c-0.3,0-0.5-0.1-0.8-0.3c-0.2-0.2-0.3-0.5-0.3-0.8c0-0.3,0.1-0.6,0.3-0.8
			C208.6,120,208.8,119.9,209.1,119.9z"/>
		<path fill="#FFFFFF" d="M222.7,114.3l-1,0.6c-0.8-1.1-2-1.7-3.4-1.7c-1.1,0-2.1,0.4-2.9,1.1c-0.8,0.7-1.1,1.6-1.1,2.7
			c0,0.7,0.2,1.3,0.5,1.9c0.3,0.6,0.8,1.1,1.4,1.4c0.6,0.3,1.3,0.5,2,0.5c1.4,0,2.5-0.6,3.4-1.7l1,0.6c-0.5,0.7-1.1,1.2-1.8,1.6
			c-0.8,0.4-1.6,0.6-2.6,0.6c-1.5,0-2.7-0.5-3.7-1.4c-1-0.9-1.5-2.1-1.5-3.5c0-0.9,0.2-1.8,0.7-2.5c0.5-0.8,1.1-1.4,1.9-1.8
			c0.8-0.4,1.7-0.7,2.7-0.7c0.6,0,1.2,0.1,1.8,0.3c0.6,0.2,1.1,0.4,1.5,0.7C222.1,113.4,222.4,113.8,222.7,114.3z"/>
		<path fill="#FFFFFF" d="M230.4,112.1c1.5,0,2.7,0.5,3.6,1.6c0.9,1,1.3,2.1,1.3,3.4c0,1.3-0.5,2.5-1.4,3.4c-0.9,1-2.1,1.5-3.5,1.5
			c-1.4,0-2.6-0.5-3.5-1.5c-0.9-1-1.4-2.1-1.4-3.4c0-1.3,0.4-2.4,1.3-3.4C227.7,112.6,228.9,112.1,230.4,112.1z M230.4,113.3
			c-1,0-1.9,0.4-2.6,1.1c-0.7,0.7-1.1,1.6-1.1,2.7c0,0.7,0.2,1.3,0.5,1.9c0.3,0.6,0.8,1,1.3,1.4c0.6,0.3,1.2,0.5,1.9,0.5
			c0.7,0,1.3-0.2,1.9-0.5c0.6-0.3,1-0.8,1.3-1.4c0.3-0.6,0.5-1.2,0.5-1.9c0-1.1-0.4-2-1.1-2.7C232.2,113.7,231.4,113.3,230.4,113.3z
			"/>
		<path fill="#FFFFFF" d="M247.8,108.7v13h-1.2v-1.6c-0.5,0.6-1.1,1.1-1.7,1.4c-0.6,0.3-1.3,0.5-2.1,0.5c-1.3,0-2.5-0.5-3.4-1.5
			c-0.9-1-1.4-2.1-1.4-3.5c0-1.4,0.5-2.5,1.4-3.5c1-1,2.1-1.4,3.4-1.4c0.8,0,1.5,0.2,2.1,0.5c0.6,0.3,1.2,0.8,1.7,1.5v-5.4H247.8z
			 M243,113.3c-0.7,0-1.3,0.2-1.9,0.5c-0.6,0.3-1,0.8-1.4,1.4c-0.3,0.6-0.5,1.2-0.5,1.9c0,0.7,0.2,1.3,0.5,1.9
			c0.3,0.6,0.8,1.1,1.4,1.4c0.6,0.3,1.2,0.5,1.8,0.5c0.7,0,1.3-0.2,1.9-0.5c0.6-0.3,1.1-0.8,1.4-1.4c0.3-0.6,0.5-1.2,0.5-1.9
			c0-1.1-0.4-2-1.1-2.7C244.9,113.6,244,113.3,243,113.3z"/>
		<path fill="#FFFFFF" d="M259.4,118.6l1,0.5c-0.3,0.7-0.7,1.2-1.2,1.6c-0.4,0.4-0.9,0.7-1.5,0.9c-0.5,0.2-1.2,0.3-1.9,0.3
			c-1.5,0-2.7-0.5-3.6-1.5c-0.9-1-1.3-2.1-1.3-3.4c0-1.2,0.4-2.3,1.1-3.2c0.9-1.2,2.2-1.8,3.7-1.8c1.6,0,2.9,0.6,3.8,1.8
			c0.7,0.9,1,1.9,1,3.2h-8.5c0,1.1,0.4,2,1.1,2.7c0.7,0.7,1.5,1,2.5,1c0.5,0,0.9-0.1,1.4-0.2c0.5-0.2,0.8-0.4,1.2-0.7
			C258.6,119.7,259,119.2,259.4,118.6z M259.4,116.1c-0.2-0.6-0.4-1.2-0.7-1.5c-0.3-0.4-0.7-0.7-1.2-0.9c-0.5-0.2-1-0.4-1.6-0.4
			c-0.9,0-1.7,0.3-2.4,0.9c-0.5,0.4-0.9,1.1-1.1,1.9H259.4z"/>
		<path fill="#FFFFFF" d="M265.2,119.9c0.3,0,0.5,0.1,0.8,0.3c0.2,0.2,0.3,0.5,0.3,0.8c0,0.3-0.1,0.5-0.3,0.8
			c-0.2,0.2-0.5,0.3-0.8,0.3c-0.3,0-0.5-0.1-0.8-0.3c-0.2-0.2-0.3-0.5-0.3-0.8c0-0.3,0.1-0.6,0.3-0.8
			C264.6,120,264.9,119.9,265.2,119.9z"/>
		<path fill="#FFFFFF" d="M279,108.7v13h-1.2v-1.6c-0.5,0.6-1.1,1.1-1.7,1.4c-0.6,0.3-1.3,0.5-2.1,0.5c-1.3,0-2.5-0.5-3.4-1.5
			c-0.9-1-1.4-2.1-1.4-3.5c0-1.4,0.5-2.5,1.4-3.5c1-1,2.1-1.4,3.4-1.4c0.8,0,1.5,0.2,2.1,0.5c0.6,0.3,1.2,0.8,1.7,1.5v-5.4H279z
			 M274.2,113.3c-0.7,0-1.3,0.2-1.9,0.5c-0.6,0.3-1,0.8-1.4,1.4c-0.3,0.6-0.5,1.2-0.5,1.9c0,0.7,0.2,1.3,0.5,1.9
			c0.3,0.6,0.8,1.1,1.4,1.4c0.6,0.3,1.2,0.5,1.8,0.5c0.7,0,1.3-0.2,1.9-0.5c0.6-0.3,1-0.8,1.4-1.4c0.3-0.6,0.5-1.2,0.5-1.9
			c0-1.1-0.4-2-1.1-2.7C276.1,113.6,275.2,113.3,274.2,113.3z"/>
		<path fill="#FFFFFF" d="M290.6,118.6l1,0.5c-0.3,0.7-0.7,1.2-1.2,1.6c-0.4,0.4-0.9,0.7-1.5,0.9c-0.5,0.2-1.2,0.3-1.9,0.3
			c-1.5,0-2.7-0.5-3.6-1.5c-0.9-1-1.3-2.1-1.3-3.4c0-1.2,0.4-2.3,1.1-3.2c0.9-1.2,2.2-1.8,3.7-1.8c1.6,0,2.9,0.6,3.8,1.8
			c0.7,0.9,1,1.9,1,3.2h-8.5c0,1.1,0.4,2,1,2.7c0.7,0.7,1.5,1,2.5,1c0.5,0,0.9-0.1,1.4-0.2c0.4-0.2,0.8-0.4,1.2-0.7
			C289.9,119.7,290.2,119.2,290.6,118.6z M290.6,116.1c-0.2-0.6-0.4-1.2-0.7-1.5c-0.3-0.4-0.7-0.7-1.2-0.9c-0.5-0.2-1-0.4-1.6-0.4
			c-0.9,0-1.7,0.3-2.4,0.9c-0.5,0.4-0.9,1.1-1.1,1.9H290.6z"/>
		<path fill="#FFFFFF" d="M294.9,108.7h1.2v13h-1.2V108.7z"/>
		<path fill="#FFFFFF" d="M299.9,108.5c0.3,0,0.5,0.1,0.7,0.3c0.2,0.2,0.3,0.4,0.3,0.7c0,0.3-0.1,0.5-0.3,0.7
			c-0.2,0.2-0.4,0.3-0.7,0.3c-0.3,0-0.5-0.1-0.7-0.3c-0.2-0.2-0.3-0.4-0.3-0.7c0-0.3,0.1-0.5,0.3-0.7
			C299.4,108.6,299.6,108.5,299.9,108.5z M299.3,112.3h1.2v9.4h-1.2V112.3z"/>
		<path fill="#FFFFFF" d="M303,112.3h1.3l3.2,6.9l3.1-6.9h1.3l-4.3,9.4h-0.2L303,112.3z"/>
		<path fill="#FFFFFF" d="M322.6,118.6l1,0.5c-0.3,0.7-0.7,1.2-1.2,1.6c-0.4,0.4-0.9,0.7-1.5,0.9c-0.6,0.2-1.2,0.3-1.9,0.3
			c-1.5,0-2.7-0.5-3.6-1.5c-0.9-1-1.3-2.1-1.3-3.4c0-1.2,0.4-2.3,1.1-3.2c0.9-1.2,2.2-1.8,3.7-1.8c1.6,0,2.9,0.6,3.8,1.8
			c0.7,0.9,1,1.9,1,3.2h-8.5c0,1.1,0.4,2,1.1,2.7c0.7,0.7,1.5,1,2.5,1c0.5,0,0.9-0.1,1.4-0.2c0.5-0.2,0.8-0.4,1.2-0.7
			C321.8,119.7,322.2,119.2,322.6,118.6z M322.6,116.1c-0.2-0.6-0.4-1.2-0.7-1.5c-0.3-0.4-0.7-0.7-1.2-0.9c-0.5-0.2-1-0.4-1.6-0.4
			c-0.9,0-1.7,0.3-2.4,0.9c-0.5,0.4-0.9,1.1-1.1,1.9H322.6z"/>
		<path fill="#FFFFFF" d="M326.6,112.3h1.2v1.4c0.4-0.5,0.8-0.9,1.2-1.2c0.4-0.3,0.8-0.4,1.3-0.4c0.3,0,0.7,0.1,1.1,0.3l-0.6,1
			c-0.3-0.1-0.5-0.2-0.6-0.2c-0.4,0-0.8,0.2-1.2,0.5c-0.4,0.3-0.7,0.8-0.9,1.5c-0.2,0.5-0.2,1.6-0.2,3.3v3.2h-1.2V112.3z"/>
	</g>
</g>
</svg>
